<svg viewBox="0 0 121.72 11.23" xmlns="http://www.w3.org/2000/svg"><g transform="translate(-.25 -1.48)"><path d="m2.29 10.21-2-8.27h1.19c.75 3.16 1.29 5.62 1.52 6.96.21-1.2 1.21-4.94 1.7-7h1.05c.45 1.85 1.46 5.77 1.65 6.94.26-1.56 1.25-5.26 1.6-6.9h1.14l-2.14 8.27h-1.26c-.45-1.9-1.36-5.44-1.59-6.67-.25 1.32-1.15 4.84-1.64 6.67z"/><path d="m15.08 8.81a11.91 11.91 0 0 0 .09 1.4h-1a5.87 5.87 0 0 1 -.09-.9 1.8 1.8 0 0 1 -1.82 1 1.77 1.77 0 0 1 -2-1.85c0-1 .63-2 2.8-2h.94v-.46c0-.56-.17-1.12-1.14-1.12a1.06 1.06 0 0 0 -1.23 1h-1.1c.09-1 .68-1.87 2.35-1.87 1.31 0 2.2.51 2.2 1.92zm-1.08-1.51h-.9c-1.41 0-1.67.57-1.67 1.09a1 1 0 0 0 1.07 1c1.16 0 1.52-.77 1.52-2z"/><path d="m15.9 4.11h1v-1.76h1.1v1.76h1.21v.89h-1.21v3.7c0 .49.12.7.64.7a3.14 3.14 0 0 0 .45 0v.82a2.79 2.79 0 0 1 -.83.11c-.95 0-1.37-.37-1.37-1.41v-3.92h-1z"/><path d="m20.9 7.38c0 1.13.46 2 1.51 2a1.31 1.31 0 0 0 1.33-.95h1.1a2.38 2.38 0 0 1 -2.48 1.87c-1.92 0-2.6-1.47-2.6-3.18 0-1.51.74-3.16 2.66-3.16s2.51 1.48 2.51 2.92v.47zm2.93-.79c0-1-.42-1.72-1.43-1.72s-1.4 1.03-1.48 1.72z"/><path d="m26.22 6.18c0-1 0-1.75 0-2.07h1.09v1.2a2 2 0 0 1 1.96-1.31v1.15c-1.35 0-1.93.77-1.93 2.1v3h-1.12z"/><path d="m30.92 8.43a1.21 1.21 0 0 0 1.31 1c.79 0 1.12-.41 1.12-.9s-.35-.75-1.35-1.02c-1.51-.42-1.9-1-1.9-1.79s.49-1.72 2.05-1.72a1.89 1.89 0 0 1 2.17 1.77h-1.09a1 1 0 0 0 -1.13-.92c-.64 0-1 .31-1 .78s.23.66 1.24.92c1.57.42 2.07 1 2.07 1.93 0 1.16-.93 1.85-2.26 1.85a2.09 2.09 0 0 1 -2.38-1.89z"/><path d="m38.77 1.94h1.14v4.06c.91-1.07 2.51-2.88 3.55-4.1h1.38l-3 3.41 3.16 4.9h-1.36l-2.64-4.1-1.09 1.14v3h-1.14z"/><path d="m45.91 6c0-1.27 0-1.65 0-1.91h1.09a7.64 7.64 0 0 1 0 .91 1.86 1.86 0 0 1 1.8-1c1.16 0 1.94.67 1.94 2.27v4h-1.12v-3.83c0-.84-.27-1.49-1.15-1.49s-1.47.73-1.47 1.97v3.29h-1.09z"/><path d="m57.51 7.06c0 1.77-.79 3.26-2.77 3.26s-2.69-1.56-2.69-3.23.87-3.09 2.77-3.09 2.69 1.32 2.69 3.06zm-4.32 0c0 1.38.55 2.32 1.61 2.32s1.56-.92 1.56-2.33-.53-2.15-1.59-2.15-1.58.89-1.58 2.18z"/><path d="m59.33 4.11c.66 2.62 1.06 4.16 1.2 5 .15-.73.5-2 1.3-4.95h1.06c.75 2.78 1.14 4.23 1.23 4.91.13-.67.46-1.86 1.27-4.91h1.12l-1.85 6.1h-1.12c-.52-2-1-3.78-1.2-4.7-.16.91-.7 2.74-1.27 4.7h-1.19l-1.74-6.1z"/><path d="m67.56 10.21v-8.73h1.12v8.73z"/><path d="m71.11 7.38c0 1.13.47 2 1.52 2a1.31 1.31 0 0 0 1.37-.92h1.1a2.38 2.38 0 0 1 -2.48 1.87c-1.92 0-2.6-1.47-2.6-3.18-.02-1.51.7-3.15 2.62-3.15s2.51 1.48 2.51 2.92v.47zm2.94-.79c0-1-.42-1.72-1.43-1.72-1.16 0-1.43 1-1.48 1.72z"/><path d="m81.35 1.48v7.12 1.61h-1.1c0-.16 0-.54 0-.86a1.68 1.68 0 0 1 -1.8 1c-1.57 0-2.36-1.33-2.36-3.16s.91-3.19 2.57-3.19c1 0 1.42.37 1.58.69v-3.21zm-4.12 5.64c0 1.42.59 2.26 1.53 2.26 1.27 0 1.52-.94 1.52-2.32 0-1.62-.44-2.13-1.46-2.13s-1.59.78-1.59 2.19z"/><path d="m87.91 9.72c0 1.9-.76 3-2.67 3s-2.36-1-2.45-1.85h1.1a1.25 1.25 0 0 0 1.4 1c1.26 0 1.54-.81 1.54-2.1v-.53a1.7 1.7 0 0 1 -1.76 1c-1.44 0-2.38-1.19-2.38-3.08s1.11-3.16 2.51-3.16c1 0 1.44.38 1.6.83a6 6 0 0 1 0-.71h1.09v1.78zm-4.06-2.61c0 1.35.57 2.14 1.5 2.14 1.12 0 1.51-.69 1.51-2.17s-.31-2.14-1.46-2.14c-.96 0-1.55.78-1.55 2.17z"/><path d="m90.34 7.38c0 1.13.47 2 1.51 2a1.31 1.31 0 0 0 1.33-.95h1.1a2.38 2.38 0 0 1 -2.48 1.87c-1.91 0-2.59-1.47-2.59-3.18 0-1.48.79-3.12 2.65-3.12s2.51 1.48 2.51 2.92v.47zm2.93-.79c0-1-.42-1.72-1.43-1.72s-1.43 1-1.48 1.72z"/><path d="m98.73 1.94h2.94c1.55 0 2.46.8 2.46 2.06a1.67 1.67 0 0 1 -1.13 1.71 2.06 2.06 0 0 1 1.42 2.05c0 1.58-1.16 2.45-2.82 2.45h-2.87zm2.7 3.38c1.11 0 1.56-.43 1.56-1.23s-.48-1.24-1.48-1.24h-1.65v2.47zm-1.57 4h1.63c1 0 1.74-.47 1.74-1.54s-.61-1.53-1.85-1.53h-1.52z"/><path d="m110.21 8.81a10.09 10.09 0 0 0 .09 1.4h-1a5.87 5.87 0 0 1 -.09-.9 1.78 1.78 0 0 1 -1.82 1 1.76 1.76 0 0 1 -2-1.85c0-1 .62-2 2.8-2h.89v-.46c0-.56-.16-1.12-1.14-1.12a1.07 1.07 0 0 0 -1.23 1h-1.08c.08-1 .67-1.87 2.34-1.87 1.31 0 2.21.51 2.21 1.92zm-1.07-1.51h-.92c-1.41 0-1.67.57-1.67 1.09a1 1 0 0 0 1.08 1c1.15 0 1.51-.77 1.51-2z"/><path d="m112.38 8.43a1.2 1.2 0 0 0 1.31 1c.79 0 1.11-.41 1.11-.9s-.38-.79-1.39-1.06c-1.52-.42-1.91-1-1.91-1.79s.5-1.68 2.1-1.68a1.9 1.9 0 0 1 2.18 1.77h-1.09a1 1 0 0 0 -1.14-.92c-.64 0-.94.31-.94.78s.23.66 1.23.92c1.58.42 2.07 1 2.07 1.93 0 1.16-.92 1.85-2.26 1.85a2.08 2.08 0 0 1 -2.37-1.89z"/><path d="m117.94 7.38c0 1.13.47 2 1.51 2a1.31 1.31 0 0 0 1.33-.95h1.1a2.38 2.38 0 0 1 -2.48 1.87c-1.91 0-2.59-1.47-2.59-3.18 0-1.51.74-3.16 2.65-3.16s2.54 1.51 2.54 2.95v.47zm2.93-.79c0-1-.42-1.72-1.43-1.72s-1.44 1.03-1.44 1.72z"/></g></svg>